<svg width="121" height="129" viewBox="0 0 121 129" fill="none" xmlns="http://www.w3.org/2000/svg">
<path fill-rule="evenodd" clip-rule="evenodd" d="M80.6666 70.6313C72.6 70.6313 65.9525 77.6387 65.9525 86.3183V124.063C65.9525 125.576 64.8321 126.77 63.4129 126.77H56.9895C55.5704 126.77 54.45 125.576 54.45 124.063V86.3183C54.45 77.7183 47.8771 70.6313 39.7358 70.6313H4.78023C3.36109 70.6313 2.24072 69.4368 2.24072 67.9239V61.5535C2.24072 60.0405 3.36109 58.8461 4.78023 58.8461H39.8105C47.8771 58.8461 54.5247 51.8387 54.45 43.159V5.09608C54.45 3.58312 55.5704 2.38867 56.9895 2.38867H63.4876C64.9068 2.38867 66.0271 3.58312 66.0271 5.09608V43.159C66.0271 51.759 72.6 58.8461 80.7413 58.8461H115.548C116.967 58.8461 118.087 60.0405 118.087 61.5535V67.9239C118.087 69.4368 116.967 70.6313 115.548 70.6313H80.6666Z" fill="white"/>
</svg>
