<?xml version="1.0" encoding="UTF-8"?>
<svg id="Layer_1" data-name="Layer 1" xmlns="http://www.w3.org/2000/svg" xmlns:xlink="http://www.w3.org/1999/xlink" viewBox="0 0 100 100">
  <defs>
    <style>
      .cls-1 {
        clip-path: url(#clippath-11);
      }

      .cls-2 {
        clip-path: url(#clippath-16);
      }

      .cls-3, .cls-4 {
        fill: #fff;
      }

      .cls-5 {
        clip-path: url(#clippath-2);
      }

      .cls-6 {
        clip-path: url(#clippath-13);
      }

      .cls-7 {
        clip-path: url(#clippath-15);
      }

      .cls-8 {
        clip-path: url(#clippath-6);
      }

      .cls-9 {
        clip-path: url(#clippath-7);
      }

      .cls-10 {
        clip-path: url(#clippath-1);
      }

      .cls-11 {
        clip-path: url(#clippath-4);
      }

      .cls-12 {
        clip-path: url(#clippath-12);
      }

      .cls-4 {
        stroke-width: 0px;
      }

      .cls-13 {
        clip-path: url(#clippath-9);
      }

      .cls-14 {
        clip-path: url(#clippath);
      }

      .cls-15 {
        clip-path: url(#clippath-3);
      }

      .cls-16 {
        clip-path: url(#clippath-8);
      }

      .cls-17 {
        clip-path: url(#clippath-18);
      }

      .cls-18 {
        clip-path: url(#clippath-14);
      }

      .cls-19 {
        clip-path: url(#clippath-17);
      }

      .cls-20 {
        clip-path: url(#clippath-5);
      }

      .cls-21 {
        clip-path: url(#clippath-10);
      }
    </style>
    <clipPath id="clippath">
      <path class="cls-4" d="M9.29,67.46h.02c.25.82.94,2.57,2.31,6.2h-4.51c1.1-3.11,1.89-5.28,2.19-6.2M8.74,66.53l-4.49,12.24h.96l1.56-4.23h5.16l1.59,4.23h1.03l-4.69-12.24h-1.12Z"/>
    </clipPath>
    <clipPath id="clippath-1">
      <path class="cls-4" d="M27.73,66.53c-1.71,4.07-4.16,10.18-4.44,11.07h-.04c-.45-1.38-2.57-6.87-4.25-11.07h-1.41v12.24h.94v-5.21c0-2.1-.03-4.95-.12-6.35h.03c.56,1.85,3.13,8.57,4.3,11.56h.93c1.56-3.86,4.04-9.89,4.53-11.54h.05c-.05,1.23-.07,3.51-.07,5.91v5.63h.94v-12.24h-1.4Z"/>
    </clipPath>
    <clipPath id="clippath-2">
      <path class="cls-4" d="M40.79,66.53c-1.31,2.11-3.46,5.7-3.99,6.61-.52-.91-2.66-4.53-3.88-6.61h-1.1l4.37,7.36c.03.05.07.18.07.28v4.6h.96v-4.55c0-.12.02-.19.05-.26l4.56-7.43h-1.05Z"/>
    </clipPath>
    <clipPath id="clippath-3">
      <path class="cls-4" d="M45.37,67.4h3.22c1.91,0,2.89.86,2.89,2.36,0,1.61-1,2.41-3.15,2.41h-2.95v-4.77ZM44.41,66.53v12.24h.96v-5.72h3.01c2.34,0,2.94.84,2.94,2.85v.31c0,1.05-.05,2.03.17,2.55h.96c-.23-.47-.16-1.63-.16-2.48v-.47c0-2.08-.84-2.9-2.1-3.2,1.36-.3,2.29-1.31,2.29-2.87,0-1.92-1.28-3.22-3.69-3.22h-4.39Z"/>
    </clipPath>
    <clipPath id="clippath-4">
      <polygon class="cls-4" points="56.34 66.53 56.34 78.77 63.99 78.77 64.13 77.89 57.29 77.89 57.29 72.75 63.53 72.75 63.53 71.88 57.29 71.88 57.29 67.4 63.85 67.4 63.85 66.53 56.34 66.53"/>
    </clipPath>
    <clipPath id="clippath-5">
      <polygon class="cls-4" points="67.41 66.53 67.41 78.77 74.75 78.77 74.93 77.89 68.35 77.89 68.35 66.53 67.41 66.53"/>
    </clipPath>
    <clipPath id="clippath-6">
      <polygon class="cls-4" points="77.69 66.53 77.69 78.77 85.03 78.77 85.21 77.89 78.63 77.89 78.63 66.53 77.69 66.53"/>
    </clipPath>
    <clipPath id="clippath-7">
      <polygon class="cls-4" points="87.97 66.53 87.97 78.77 95.61 78.77 95.75 77.89 88.91 77.89 88.91 72.75 95.15 72.75 95.15 71.88 88.91 71.88 88.91 67.4 95.47 67.4 95.47 66.53 87.97 66.53"/>
    </clipPath>
    <clipPath id="clippath-8">
      <path class="cls-4" d="M19.65,46.99c-.69-.51-1.81-1.54-2.63-3.09-.86-1.62-1.38-3.82-.76-6.66.05-.24.1-.47.18-.7.5-1.67,1.49-3.2,2.82-4.4,1.59-1.42,4.17-2.98,7.79-2.98h.27l-1.76,4.54-4.14,10.72-.9,2.33h0c-.09.25-.31.38-.53.38-.12,0-.25-.04-.35-.12M74.45,28.06s0-.09.03-.11c.67-.43,1.43-.73,2.26-.91.49-.1.99-.15,1.48-.15,2,0,3.96.79,5.47,2.26.26.23.49.49.7.76,1.54,1.88,2.19,4.1,1.95,6.63-.05.49-.13.97-.24,1.46-.42,1.94-1.49,3.76-3.01,5.1-.54.5-1.13.94-1.74,1.31-.09.07-.19.12-.28.17l-6.61-16.5ZM66.27,39.82s-.04-.09-.06-.14l-6.06-15.12-.83-2.17v-.05s5.01-12.94,5.01-12.94c.03-.08.14-.08.16,0l4.56,11.81,2.42,6.04.92,2.31,6.38,15.92s0,.11-.06.12c-.89.26-1.77.41-2.63.47-.19.01-.37.02-.56.02-4.04,0-7.68-2.51-9.25-6.26M51.46,34.92l-5.1-13.2v-.04s5.01-13.01,5.01-13.01v.04s5.04,13.01,5.04,13.01l.24.65-5.03,12.55s-.05.06-.08.06-.07-.02-.08-.06M38.5,30.08c-1.64-.77-3.18-1.44-4.69-2.01-1-.39-1.98-.72-2.94-.92-.03-.06-.04-.08-.07-.13l6.96-18.06c.13-.31.37-.35.52-.35.06,0,.17.01.26.06.1.04.19.13.26.28l4.31,11.16.6,1.56-.26.65-1.67,4.32-1.68,4.19c-.55-.27-1.09-.53-1.6-.77M64.4,6.15c-.17,0-.35.01-.5.05-.68.17-1.23.64-1.49,1.31l-4.34,11.24c-.03.08-.14.08-.17,0l-4.28-11.05c-.36-.94-1.24-1.55-2.24-1.55h-.01c-1.01,0-1.9.6-2.26,1.55l-4.01,10.35c-.03.08-.14.08-.17,0l-3.85-9.98c-.38-.97-1.21-1.67-2.2-1.87-.18-.03-.36-.05-.54-.05h-.06c-1.26,0-2.37.76-2.82,1.92l-6.69,17.33-.51,1.32c-1.35-.1-2.58-.03-3.7.17-2.23.38-4.05,1.27-5.47,2.26-.55.37-1.03.77-1.46,1.15-1.79,1.59-3.08,3.72-3.67,5.99-.04.14-.08.27-.1.41-.53,2.37-.42,4.4.05,6.09.88,3.19,3.03,5.26,4.58,6.37.29.22.61.36.95.45.22.05.45.09.68.09.27,0,.54-.04.81-.13.49-.14.92-.41,1.25-.77.23-.26.42-.57.55-.9l.05-.14,7.05-18.25s.06-.03.1-.06c.96.19,1.97.5,2.99.91,1.47.56,2.96,1.19,4.54,1.94.54.26,1.09.52,1.67.8.04.02.06.07.05.11l-2.66,6.61-2.69,6.74-3.88,9.69c-.26.63.05,1.35.68,1.6.62.24,1.33-.05,1.59-.67,0,0,.01-.01.01-.03l3.92-9.78.65-1.63s.01-.05.03-.08l7.27-18.12.95-2.45,5.38,13.91c.39,1.01,1.82,1.02,2.23.01l5.33-13.29.73,1.82,11.88,29.64c.27.61.97.91,1.59.67.64-.26.95-.97.69-1.6l-3.76-9.37c-.03-.09.06-.16.13-.1,1.11.88,2.74,1.44,3.88,1.6.74.12,1.49.17,2.21.17,1.63,0,3.19-.27,4.68-.8.29-.1.6-.22.9-.34h0s.01-.01.01-.01l.74-.32v-.02c.19-.1.4-.21.59-.32.88-.5,1.72-1.1,2.5-1.79.36-.33.7-.68,1.02-1.04,1.35-1.54,2.31-3.41,2.74-5.37.17-.78.28-1.54.32-2.24.22-3.68-1.18-6.31-2.53-7.95-2.5-3.05-6.36-4.47-10.06-3.7-.79.17-1.55.42-2.24.77-.17.08-.35.18-.51.27l-2.15-5.36-4.93-12.8c-.32-.82-1.09-1.35-1.96-1.36h-.04Z"/>
    </clipPath>
    <clipPath id="clippath-9">
      <path class="cls-4" d="M13.65,93.41c-.18,0-.34-.06-.47-.17-.07-.06-.09-.12-.06-.19.03-.08.07-.15.13-.22.08-.11.18-.2.29-.29.11-.08.22-.15.34-.22.31-.18.63-.33.95-.46.32-.13.65-.25.98-.39,0,.01.02.02.02.02,0,0,0,.01.02.02.1.13.16.27.18.42.02.15,0,.3-.07.45-.07.16-.18.3-.31.41-.14.11-.28.2-.44.28-.16.08-.34.14-.52.19-.18.05-.36.09-.54.11-.11.02-.23.03-.36.03-.04,0-.09,0-.13,0M15.07,86.67c-.19.02-.39.06-.58.12-.19.06-.37.12-.55.2-.17.07-.33.17-.49.27-.16.11-.31.23-.43.37-.13.14-.22.29-.3.46-.07.17-.1.35-.09.55,0,.19.06.37.15.52.09.16.2.3.32.42s.27.24.43.34c.15.1.31.2.46.3l1.1.69c.06.04.13.08.19.12.06.04.12.08.18.13-.26.1-.52.2-.78.3-.25.1-.51.22-.75.35-.11.06-.24.13-.37.2-.13.08-.26.17-.37.26-.12.1-.22.2-.31.32-.09.12-.15.24-.19.38-.05.19-.03.34.06.46.08.12.2.21.34.28.15.07.3.11.47.13.17.02.32.03.45.02.19,0,.37-.04.55-.08.18-.04.36-.09.54-.15.18-.07.35-.14.52-.23.17-.09.32-.2.46-.34.13-.13.23-.28.31-.45.08-.17.12-.34.13-.53,0-.14-.02-.28-.06-.41-.04-.13-.11-.25-.19-.37h0c.2-.08.39-.18.58-.27.19-.09.37-.2.55-.32.15-.1.29-.21.43-.33.14-.12.25-.26.32-.43.01-.04.01-.08,0-.11-.02-.03-.05-.05-.08-.07-.03-.01-.07-.02-.1,0-.04,0-.06.03-.08.07-.03.07-.08.13-.13.19-.06.06-.12.11-.19.16-.07.05-.14.09-.22.14-.08.04-.15.08-.21.12-.17.1-.35.19-.53.27-.18.08-.36.16-.54.23-.01,0-.02,0-.04.01-.01,0-.03,0-.04.02-.1-.09-.2-.18-.31-.26-.11-.08-.22-.15-.34-.22l-1.1-.69c-.13-.08-.28-.17-.43-.27-.15-.1-.29-.21-.4-.33-.12-.12-.2-.25-.25-.4-.06-.15-.05-.32.02-.51.07-.19.18-.35.33-.48.15-.13.32-.24.49-.33.2-.1.4-.18.61-.25.21-.07.43-.11.66-.12.19,0,.39.01.58.06.19.05.36.14.5.28.13.12.23.27.31.44.08.17.1.35.06.53-.01.05,0,.08.02.11.03.03.06.05.09.06.03.01.06,0,.1,0,.03-.01.06-.05.07-.09.06-.17.07-.33.05-.49-.02-.16-.07-.32-.15-.46-.08-.15-.17-.28-.29-.4-.12-.12-.26-.21-.4-.28-.18-.09-.36-.15-.56-.17-.11-.01-.21-.02-.32-.02-.09,0-.17,0-.26.01"/>
    </clipPath>
    <clipPath id="clippath-10">
      <path class="cls-4" d="M18.71,89.92c-.09-.01-.19-.03-.28-.06.04-.08.07-.15.1-.2.03-.05.07-.11.13-.17.07-.07.16-.13.25-.18.1-.05.2-.07.31-.06.12.01.2.05.23.13.03.08.02.17-.04.27-.05.08-.11.15-.19.19-.08.05-.16.07-.25.09-.05,0-.1.01-.15.01-.04,0-.09,0-.13,0M18.91,88.87c-.12.03-.23.07-.34.14-.11.06-.2.13-.28.21-.1.1-.18.21-.24.32-.07.11-.13.23-.18.36-.05.13-.09.26-.13.39-.04.13-.05.26-.05.4,0,.18.04.34.11.49.07.14.17.27.29.37.12.1.26.18.42.23.16.05.32.07.49.05.16,0,.32-.04.47-.09.15-.05.31-.1.46-.17.15-.07.29-.14.43-.23.14-.08.28-.17.41-.26.15-.09.3-.19.44-.3.14-.11.29-.21.43-.32.09-.07.19-.15.29-.23.1-.08.18-.18.24-.29.02-.05.02-.1-.02-.15-.03-.05-.08-.06-.13-.04-.08.03-.15.06-.22.11-.07.05-.13.09-.2.14l-.58.4c-.22.15-.44.28-.67.42-.23.13-.47.24-.72.33-.06.02-.11.04-.17.06-.06.02-.12.03-.18.05l-.16.03s-.06.01-.06.01h-.06s-.06,0-.09,0h-.08s-.02,0-.03,0c-.01,0-.02,0-.03,0s-.02,0-.02,0c0,0-.01,0-.02,0-.02,0-.05,0-.07-.02-.02,0-.04-.01-.07-.02,0,0,0,0,0,0,0,0-.01,0-.01,0-.02,0-.04-.02-.07-.04,0,0,0,0-.02-.01,0,0-.01-.01-.02-.01-.02-.01-.04-.02-.04-.04-.05-.03-.07-.06-.08-.09-.04-.06-.08-.13-.11-.19-.02-.06-.04-.14-.04-.22s.01-.17.03-.26c.02-.09.05-.17.09-.26.16.09.35.13.54.13.2,0,.38-.05.54-.15.09-.06.18-.14.25-.23s.12-.19.15-.3c.03-.1.03-.21,0-.31-.03-.1-.1-.19-.21-.27-.1-.07-.22-.12-.33-.13-.04,0-.07,0-.11,0-.08,0-.16,0-.24.03"/>
    </clipPath>
    <clipPath id="clippath-11">
      <path class="cls-4" d="M24.49,89.2c-.07.01-.14.04-.2.07-.08.04-.16.08-.23.13-.08.04-.15.09-.22.14-.14.08-.28.17-.42.27-.14.09-.27.19-.4.29-.14.1-.28.21-.43.33-.14.11-.27.24-.39.37,0-.04,0-.08.01-.12,0-.04,0-.06,0-.07.03-.19.05-.39.05-.59,0-.03-.01-.06-.04-.09-.02-.03-.05-.04-.08-.04-.03,0-.06,0-.09.02-.03.01-.05.04-.06.07-.03.09-.05.18-.08.27-.03.09-.05.17-.08.27-.02.08-.05.16-.07.25-.03.09-.03.17,0,.25.02.07.05.12.1.17.05.05.11.08.17.1.09.02.17.01.24-.03.07-.04.13-.09.19-.14.27-.25.55-.48.84-.7.29-.22.59-.42.91-.6l.21-.11s-.02.07-.03.11c0,.04-.02.08-.03.11-.02.05-.04.11-.05.17-.02.06-.03.11-.04.17-.04.16-.06.32-.07.48,0,.16.03.32.12.47.09.16.22.28.39.35.17.07.34.1.52.09.19-.01.38-.04.57-.08.19-.04.38-.09.55-.14.4-.14.79-.31,1.16-.52.37-.21.72-.44,1.07-.68.06-.04.1-.1.11-.17,0-.07,0-.13-.03-.19-.03-.05-.08-.09-.14-.12-.06-.02-.12-.01-.2.03-.29.19-.59.37-.88.55-.29.18-.6.33-.93.46-.16.07-.32.13-.49.17-.16.04-.33.08-.5.11-.06.01-.13.02-.2.03-.08.01-.15.02-.22.02-.07,0-.14-.02-.2-.04-.06-.02-.12-.07-.16-.13-.04-.06-.06-.12-.07-.19,0-.07,0-.14.01-.21.01-.07.03-.15.05-.22.02-.07.04-.14.05-.2.02-.08.03-.15.06-.24.02-.08.04-.17.04-.25,0-.08,0-.16-.03-.23-.03-.07-.09-.13-.17-.17-.06-.03-.11-.05-.16-.05-.02,0-.03,0-.05,0"/>
    </clipPath>
    <clipPath id="clippath-12">
      <path class="cls-4" d="M30.46,84.97c-.05,0-.1.04-.13.09-.47.78-.88,1.6-1.23,2.46-.25.02-.51.04-.77.07s-.51.06-.77.1c-.05,0-.08.03-.09.06s-.02.07-.02.11c0,.04.02.07.05.1.03.03.06.04.11.04.22-.02.45-.04.67-.05.22-.01.45-.02.67-.03-.1.28-.2.57-.29.86-.09.29-.17.58-.24.88-.04.16-.08.34-.12.53-.04.19-.07.38-.08.57-.01.19,0,.38.05.55.05.17.14.33.28.46.15.13.32.22.5.25.18.03.37.03.57,0,.19-.03.39-.09.57-.16.19-.08.36-.15.51-.22.19-.08.37-.18.55-.29.18-.11.35-.23.52-.37.16-.14.32-.28.46-.44.14-.16.26-.33.36-.51.03-.05.03-.09.02-.13-.01-.04-.04-.08-.07-.11-.03-.02-.07-.04-.12-.04s-.09.02-.13.05c-.25.22-.5.44-.74.65-.25.21-.52.39-.83.55-.14.07-.29.13-.43.19-.14.05-.3.1-.46.14-.06.02-.12.03-.19.05-.07.02-.14.03-.21.04-.07,0-.14,0-.21,0-.07,0-.13-.03-.19-.06-.05-.03-.1-.07-.13-.12-.03-.05-.05-.1-.06-.16-.01-.06-.02-.12-.02-.18s0-.12,0-.18c.01-.17.03-.35.07-.51s.08-.34.12-.5c.07-.3.15-.61.23-.91.08-.3.17-.6.27-.9h.24c.08,0,.16,0,.24,0,.14,0,.28,0,.42.02.14.01.27,0,.4-.02.05,0,.09-.03.12-.07.03-.04.04-.08.04-.13s-.01-.09-.04-.13c-.03-.04-.07-.07-.12-.08-.13-.03-.27-.04-.41-.03-.14,0-.28.01-.41.02-.06,0-.11,0-.17.01s-.11,0-.17,0c.29-.77.62-1.51,1.01-2.21.03-.06.04-.12.02-.16-.02-.05-.05-.09-.1-.11-.03-.02-.07-.03-.11-.03-.01,0-.02,0-.04,0"/>
    </clipPath>
    <clipPath id="clippath-13">
      <path class="cls-4" d="M33.12,89.92c-.09-.01-.19-.03-.28-.06.04-.08.07-.15.1-.2.02-.05.07-.11.13-.17.07-.07.15-.13.26-.18.1-.05.2-.07.31-.06.12.01.2.05.23.13.03.08.02.17-.04.27-.05.08-.11.15-.19.19-.07.05-.16.07-.25.09-.05,0-.09.01-.14.01-.04,0-.09,0-.13,0M33.32,88.87c-.12.03-.23.07-.34.14-.11.06-.2.13-.28.21-.09.1-.18.21-.24.32-.07.11-.13.23-.18.36-.05.13-.09.26-.13.39-.04.13-.05.26-.05.4,0,.18.04.34.11.49.08.14.17.27.29.37.12.1.26.18.41.23.16.05.32.07.49.05.16,0,.32-.04.47-.09.15-.05.31-.1.46-.17.15-.07.29-.14.43-.23.14-.08.28-.17.41-.26.15-.09.3-.19.44-.3.14-.11.29-.21.43-.32.09-.07.19-.15.3-.23.1-.08.18-.18.23-.29.03-.05.02-.1-.02-.15-.03-.05-.08-.06-.13-.04-.08.03-.15.06-.22.11-.06.05-.13.09-.19.14l-.58.4c-.22.15-.44.28-.67.42-.23.13-.47.24-.72.33-.06.02-.11.04-.17.06-.06.02-.12.03-.18.05l-.16.03s-.06.01-.06.01h-.06s-.06,0-.09,0h-.08s-.02,0-.03,0c-.01,0-.02,0-.03,0,0,0-.02,0-.02,0,0,0-.01,0-.02,0-.03,0-.05,0-.07-.02-.02,0-.04-.01-.07-.02,0,0,0,0,0,0,0,0,0,0-.02,0-.01,0-.04-.02-.07-.04,0,0-.01,0-.02-.01,0,0-.01-.01-.02-.01-.03-.01-.04-.02-.04-.04-.05-.03-.07-.06-.08-.09-.05-.06-.08-.13-.11-.19-.03-.06-.04-.14-.04-.22s.01-.17.03-.26c.02-.09.05-.17.09-.26.16.09.35.13.54.13.2,0,.38-.05.54-.15.09-.06.18-.14.25-.23s.12-.19.15-.3c.03-.1.03-.21,0-.31-.03-.1-.1-.19-.21-.27-.1-.07-.22-.12-.33-.13-.04,0-.07,0-.11,0-.08,0-.16,0-.24.03"/>
    </clipPath>
    <clipPath id="clippath-14">
      <path class="cls-4" d="M39.51,88.95c-.07.02-.14.05-.2.11-.06.06-.11.12-.16.18h0s-.08.08-.08.08c-.05.06-.11.11-.17.18-.06.06-.14.14-.22.22-.13.13-.27.25-.41.37-.14.12-.29.23-.44.32-.08.06-.19.11-.31.16-.12.05-.24.08-.35.08-.04,0-.09,0-.14-.02-.05-.02-.09-.04-.12-.06-.04-.03-.06-.09-.08-.15-.02-.07-.03-.14-.04-.22-.01-.08-.02-.15-.02-.22v-.18c0-.05-.01-.09-.04-.12-.03-.03-.06-.05-.1-.06-.04,0-.07,0-.11.02-.04.02-.06.05-.08.09-.02.09-.03.17-.04.23,0,.06-.01.13-.02.21v.04c0,.11,0,.22.02.34.02.12.06.22.13.31.09.1.18.17.3.22.11.04.23.07.35.07.09,0,.19-.01.29-.03.1-.02.2-.05.28-.09.19-.08.39-.2.58-.34.19-.14.37-.29.53-.43l.14-.1c-.02.08-.03.16-.04.25,0,.09,0,.17.01.26.02.12.06.22.12.31.06.08.14.16.23.21.09.05.19.1.3.13.11.03.22.05.32.06.26.02.53,0,.78-.07.26-.07.51-.16.75-.29.13-.06.25-.13.36-.2.11-.07.22-.13.33-.2l.1-.07c.1-.07.19-.14.29-.23.1-.08.18-.16.25-.25.03-.04.04-.09.04-.13,0-.04-.01-.08-.04-.11-.02-.03-.05-.05-.1-.06-.04-.01-.09,0-.14.01-.06.03-.13.07-.2.1-.07.04-.14.09-.2.14-.06.05-.11.09-.17.13-.1.06-.19.13-.28.19-.09.06-.18.12-.26.16-.19.11-.39.2-.6.28-.21.08-.43.12-.65.14-.07,0-.15,0-.24,0-.09,0-.18-.02-.26-.05-.08-.02-.15-.06-.21-.12-.06-.05-.09-.12-.1-.21-.02-.09-.01-.19.01-.29.02-.1.05-.2.07-.3,0-.01,0-.02,0-.03,0-.01,0-.02,0-.03,0-.04.02-.08.03-.12.01-.04.02-.08.03-.12,0-.02.01-.04.02-.06,0-.02.01-.04.02-.06.04-.05.08-.1.11-.16.03-.06.05-.12.04-.18,0-.06-.03-.12-.08-.16-.04-.03-.08-.04-.12-.04-.02,0-.03,0-.05,0"/>
    </clipPath>
    <clipPath id="clippath-15">
      <path class="cls-4" d="M42.59,89.61c-.1,0-.18-.04-.25-.1-.03-.03-.05-.06-.06-.1,0-.04,0-.08.01-.12.01-.04.03-.08.05-.11.02-.04.04-.07.06-.1.13-.19.29-.33.49-.45.03-.01.07-.03.11-.06.04-.02.08-.04.12-.04.04,0,.08,0,.11,0,.03.01.05.04.06.09.01.1,0,.2-.05.32-.04.11-.08.21-.12.3-.07.13-.16.26-.27.39-.09,0-.17-.02-.27-.02M42.9,88.12c-.22.09-.43.21-.64.39-.2.18-.34.38-.43.62-.05.13-.06.25-.04.38.02.12.08.24.17.34.09.1.2.16.33.19.12.03.25.06.38.08.19.02.38.05.57.07.19.03.37.08.55.14,0,0,.02,0,.03,0,.02,0,.02.01.03.01l.04.02.06.03s.03.02.04.02l.03.04.03.05s.02.05.02.05c0,0,0,.01,0,.03s0,.03,0,.03c0,.01,0,.02,0,.03,0,.01,0,.02,0,.03,0,.03,0,.05,0,.08,0,.03,0,.05,0,.08.02.09.04.18.07.27.03.09.07.17.12.25.05.08.11.15.17.21.07.06.14.11.23.14.13.06.27.07.4.06.13-.02.27-.05.39-.11.13-.06.25-.12.37-.2.12-.08.23-.15.33-.23.12-.08.23-.16.34-.24.11-.08.22-.17.33-.26.04-.04.1-.09.15-.15.06-.06.11-.12.16-.19.05-.07.1-.13.14-.21.04-.07.07-.13.09-.19,0-.03,0-.07,0-.1-.02-.03-.04-.06-.06-.09-.03-.02-.06-.04-.09-.04-.04,0-.07,0-.11.03-.08.06-.15.12-.23.19-.08.07-.17.15-.25.23-.08.08-.17.16-.25.23-.08.07-.16.13-.24.19-.08.06-.15.11-.23.17-.08.06-.15.11-.23.16-.08.05-.16.11-.24.16-.08.05-.17.09-.27.12-.08.02-.16.03-.23.03-.07,0-.14-.05-.19-.11-.04-.05-.07-.11-.1-.16-.03-.06-.05-.12-.06-.19v-.08s-.01-.04-.01-.04c0-.03,0-.07-.01-.1,0-.03,0-.07-.02-.11-.04-.17-.13-.31-.26-.41-.14-.1-.28-.17-.44-.22-.09-.03-.19-.05-.28-.08-.09-.02-.19-.04-.29-.05.1-.12.18-.26.25-.4.06-.14.12-.28.15-.42.02-.11.03-.22.03-.34,0-.12-.05-.22-.13-.3-.09-.1-.2-.15-.32-.16-.02,0-.05,0-.07,0-.1,0-.2.02-.29.05"/>
    </clipPath>
    <clipPath id="clippath-16">
      <path class="cls-4" d="M47.98,89.3h.02s0,0,0,0c0,0,0,0,0,0,0,0-.01,0-.02,0M48.09,92s-.04-.01-.04-.02c0,0,0-.03,0-.05,0-.04.01-.09.04-.12.02-.04.06-.07.1-.1.04-.03.08-.06.12-.09.04-.03.08-.05.11-.07.04-.03.07-.05.09-.06,0,.09-.03.17-.06.25-.04.08-.09.15-.16.2-.03.02-.05.04-.09.05-.02.01-.05.02-.07.02,0,0-.02,0-.03,0M47.83,88.2c-.09.02-.19.06-.28.12-.09.06-.17.13-.25.21-.08.08-.14.15-.18.21-.05.08-.11.16-.15.25-.05.09-.08.19-.11.29-.03.1-.04.2-.03.3,0,.1.03.2.07.29.05.08.1.15.17.21.07.05.15.1.23.14.08.04.17.08.25.11.08.03.16.07.24.12.13.07.25.15.36.25.12.1.21.21.27.34,0,0,0,0,0,0-.08.05-.17.1-.26.16-.09.05-.18.12-.25.19-.08.07-.14.15-.2.24-.06.09-.09.18-.09.29-.01.09,0,.19.05.27.04.09.1.16.19.21.09.06.19.08.3.07.1-.01.2-.04.29-.08.16-.08.28-.19.37-.34.09-.15.14-.31.17-.47.02-.14.01-.26,0-.37.11-.06.22-.11.33-.16.11-.05.22-.1.34-.15.16-.06.32-.12.49-.17.17-.05.34-.12.5-.18.17-.07.33-.14.48-.23.15-.08.29-.19.41-.32.03-.02.04-.06.04-.09s0-.07-.02-.1c-.02-.03-.04-.05-.07-.07-.03-.02-.06-.02-.1,0-.17.06-.34.13-.49.22-.15.09-.31.17-.48.24-.13.06-.25.1-.38.14-.13.04-.26.08-.39.13-.14.06-.28.11-.41.17-.13.06-.26.12-.39.19-.12-.21-.27-.39-.47-.54-.2-.15-.42-.27-.64-.37-.03-.01-.07-.03-.12-.05-.04-.02-.09-.04-.13-.06-.04-.02-.08-.05-.11-.08-.03-.03-.06-.07-.07-.11-.03-.09-.02-.19.03-.31.05-.12.1-.21.15-.29.02-.05.05-.09.09-.12.03-.04.07-.07.1-.11.02-.02.04-.04.06-.06.02-.02.04-.03.06-.05l.05-.04s.02,0,.05-.03c0,0,0,0,0,.01,0,0,0,0,0,.02,0,.06,0,.12-.02.16-.01.07-.03.13-.05.19-.02.06-.05.12-.07.18-.02.04-.02.08-.01.11.01.04.03.06.06.08.03.02.06.02.1.02.04,0,.07-.03.09-.07l.02-.03c.04-.06.08-.14.13-.24.04-.09.08-.18.1-.28.02-.09.03-.19.01-.28-.01-.09-.05-.16-.12-.22-.06-.06-.14-.09-.21-.09-.02,0-.03,0-.05,0"/>
    </clipPath>
    <clipPath id="clippath-17">
      <path class="cls-4" d="M54.78,91.12c-.12-.02-.2-.07-.22-.15-.02-.08-.02-.18.01-.29.03-.11.08-.21.14-.31.06-.1.11-.18.15-.23.14-.18.31-.32.51-.43.2-.12.41-.19.64-.22.12-.02.25-.02.39,0,.13.01.25.07.34.17.04.04.08.08.11.12.03.04.06.08.1.12.02.02.03.04.06.06.02.02.04.04.06.06l-.25.18c-.11.07-.22.14-.33.2-.11.06-.22.13-.33.2-.11.06-.22.12-.34.18-.12.06-.23.11-.35.16-.1.05-.21.09-.34.13-.09.03-.18.05-.27.05-.03,0-.06,0-.09,0M61.78,89.92c-.09-.01-.19-.03-.28-.06.04-.08.07-.15.1-.2.03-.05.07-.11.13-.17.07-.07.15-.13.25-.18.1-.05.2-.07.31-.06.12.01.2.05.23.13.03.08.02.17-.04.27-.05.08-.11.15-.19.19-.08.05-.16.07-.25.09-.05,0-.1.01-.14.01-.04,0-.09,0-.13,0M57.89,89.07c.04-.14.09-.27.13-.4.08-.23.17-.46.27-.69.1-.23.21-.45.34-.67.13-.21.28-.42.44-.61.16-.19.35-.36.55-.5.09-.06.18-.12.28-.19.11-.06.21-.11.32-.13.02,0,.03,0,.05,0,0,0,0,0,0,.01,0,0,0,0,0,.01,0,.08-.02.16-.04.25-.08.24-.17.47-.29.69-.12.22-.25.43-.38.63-.25.37-.54.72-.84,1.04-.31.32-.62.64-.94.97.03-.14.07-.28.11-.41M60.24,85.36c-.07,0-.15.02-.22.05-.08.03-.15.05-.21.08-.26.12-.5.27-.72.46-.21.19-.41.4-.58.63-.17.23-.33.47-.47.73-.14.26-.26.52-.36.77-.1.24-.19.49-.27.75-.08.26-.14.51-.19.78-.02-.01-.03-.03-.04-.05-.01-.02-.03-.04-.04-.05-.09-.13-.19-.23-.3-.3-.11-.07-.25-.12-.41-.14-.3-.04-.61-.01-.91.09-.3.11-.56.26-.78.47-.11.1-.2.21-.28.32-.08.12-.15.24-.2.37-.06.13-.11.28-.14.43-.04.15-.02.3.05.44.09.16.2.26.33.31.14.05.28.07.43.05.15-.01.31-.05.46-.11s.3-.11.42-.17c.17-.07.33-.15.49-.23.16-.09.32-.18.47-.27l.38-.23c.02.18.07.35.14.51.08.16.19.29.35.4.14.1.29.16.46.19.16.03.33.03.5,0,.17-.03.33-.07.49-.13.16-.06.31-.13.45-.21.14-.08.28-.17.42-.26.13-.09.27-.18.42-.26.14-.09.27-.18.4-.27,0,.06-.02.12-.02.18,0,.18.04.34.11.49.08.14.17.27.29.37.12.1.26.18.42.23.16.05.32.07.49.05.16,0,.32-.04.47-.09.15-.05.31-.1.46-.17.15-.07.29-.14.43-.23.14-.08.28-.17.41-.26.15-.09.3-.19.44-.3.14-.11.29-.21.43-.32.09-.07.19-.15.29-.23.1-.08.18-.18.24-.29.02-.05.02-.1-.02-.15-.03-.05-.08-.06-.14-.04-.08.03-.15.06-.22.11-.06.05-.13.09-.19.14l-.58.4c-.22.15-.44.28-.67.42-.23.13-.47.24-.72.33-.06.02-.11.04-.17.06-.06.02-.12.03-.18.05l-.16.03s-.06.01-.06.01h-.06s-.06,0-.09,0h-.08s-.02,0-.03,0c-.01,0-.02,0-.03,0s-.02,0-.02,0c0,0-.01,0-.02,0-.03,0-.05,0-.07-.02-.02,0-.04-.01-.07-.02,0,0,0,0,0,0,0,0-.01,0-.02,0-.01,0-.04-.02-.07-.04,0,0-.01,0-.02-.01,0,0-.01-.01-.02-.01-.02-.01-.04-.02-.04-.04-.05-.03-.07-.06-.08-.09-.05-.06-.08-.13-.11-.19-.02-.06-.04-.14-.04-.22s.01-.17.03-.26c.02-.09.05-.17.09-.26.16.09.35.13.54.13.2,0,.38-.05.54-.15.09-.06.18-.14.25-.23.07-.09.12-.19.15-.3.03-.1.03-.21,0-.31-.03-.1-.09-.19-.2-.27-.11-.07-.22-.12-.33-.13-.12-.01-.23,0-.35.02-.12.03-.23.07-.34.14-.11.06-.2.13-.28.21-.09.1-.18.21-.24.32-.04.07-.07.14-.11.21-.06,0-.12.03-.17.07-.2.15-.4.29-.61.42-.21.13-.42.26-.63.38-.1.07-.2.13-.31.2-.11.06-.22.12-.34.17-.12.05-.23.09-.35.11-.12.03-.24.03-.37.02-.11-.02-.21-.05-.28-.11-.07-.06-.13-.13-.17-.21-.04-.08-.07-.17-.09-.27-.02-.1-.02-.19-.02-.3,0-.03,0-.06,0-.09,0-.03,0-.06.01-.08v-.02c.43-.32.83-.68,1.21-1.06.38-.38.72-.79,1.03-1.22.17-.23.33-.48.47-.74.15-.26.26-.53.35-.81.03-.11.05-.24.04-.37,0-.13-.06-.25-.15-.34-.06-.06-.12-.1-.19-.12-.05-.02-.11-.03-.16-.03-.02,0-.04,0-.05,0"/>
    </clipPath>
    <clipPath id="clippath-18">
      <path class="cls-4" d="M83.89,89.44c-.09-.01-.19-.03-.28-.06.04-.08.07-.15.1-.2.02-.05.07-.11.13-.17.07-.07.15-.13.25-.18.1-.05.2-.07.31-.06.12.01.2.06.23.13.03.08.02.17-.04.27-.05.08-.11.15-.19.19-.07.04-.16.07-.25.09-.05,0-.1.01-.15.01-.04,0-.09,0-.13,0M69.02,89.26c.04-.16.08-.32.12-.48.04-.16.09-.31.14-.47.11-.3.23-.59.36-.87.14-.28.29-.56.45-.84.07-.12.14-.22.21-.33.07-.11.15-.21.24-.31.04-.04.08-.08.12-.13.05-.05.1-.09.15-.13.06-.04.11-.07.17-.1.06-.03.12-.04.17-.04.04,0,.08.03.1.08.02.05.04.11.04.18,0,.07.01.13.01.2v.15c0,.11-.03.23-.07.34-.04.12-.09.23-.14.33-.09.19-.2.36-.31.52-.11.16-.24.32-.38.48-.05.06-.12.14-.21.23-.09.09-.19.2-.29.3-.1.11-.21.21-.32.32-.11.11-.21.21-.3.29-.09.09-.16.16-.21.21-.05.05-.08.07-.08.07M71.13,85.11c-.08,0-.16.02-.25.05-.08.03-.15.06-.22.1-.14.07-.27.17-.37.28-.11.11-.21.23-.31.35-.21.27-.4.55-.57.85-.17.3-.32.61-.46.92-.14.35-.27.69-.39,1.04-.11.35-.2.71-.25,1.08-.03.19-.04.38-.03.57.01.19.07.37.17.54.09.13.2.25.33.35.13.1.28.17.44.21.2.06.41.08.62.06.21-.02.42-.05.62-.1.2-.05.4-.1.6-.16.2-.06.39-.12.59-.18.18-.06.36-.12.54-.19.18-.07.36-.14.54-.21.19-.08.38-.17.56-.26.12-.06.22-.15.33-.24v.02c0,.1,0,.21.02.33.01.12.06.22.13.31.09.1.18.18.29.21.11.05.23.07.36.07.09,0,.2,0,.3-.03.1-.02.19-.05.28-.09.2-.09.39-.2.58-.34.19-.14.37-.29.53-.43l.13-.1c-.02.08-.03.17-.04.24,0,.09,0,.17,0,.25.02.13.06.23.13.31.06.09.13.16.23.21.09.06.19.1.3.13.1.03.21.06.32.06.27.02.53,0,.79-.07.25-.06.5-.16.74-.29h0c.13-.06.25-.13.36-.2.11-.07.22-.13.32-.21l.1-.07c.09-.06.31-.2.4-.28.15.14.31.26.49.36.18.09.36.17.56.2.09.01.18.02.28.02.21,0,.4-.03.58-.1.19-.06.37-.16.55-.27.16-.11.33-.24.5-.37,0,.05-.02.09-.02.14,0,.18.04.34.11.49.08.14.17.27.29.37.12.1.26.18.41.23.16.05.32.07.49.05.16,0,.32-.04.47-.09.15-.05.31-.1.46-.17.15-.07.29-.14.43-.23.14-.08.28-.17.41-.26.15-.09.3-.19.44-.3.14-.11.29-.21.43-.32.09-.07.19-.15.29-.23.1-.08.18-.18.23-.29.03-.05.02-.1-.01-.15-.03-.05-.08-.06-.13-.04-.08.02-.15.06-.22.1-.06.05-.13.09-.19.14l-.58.4c-.22.15-.44.28-.67.42-.23.13-.47.24-.72.33-.05.02-.11.04-.17.05-.06.02-.12.03-.18.05l-.16.03s-.06.02-.06.02h-.06s-.06,0-.09,0h-.08s-.02,0-.03,0c-.01,0-.02,0-.03,0-.01,0-.02,0-.02,0,0,0-.01,0-.02,0-.03,0-.05,0-.07-.01-.02,0-.04-.01-.07-.02,0,0,0,0,0,0,0,0,0,0-.02,0-.01,0-.04-.02-.07-.04,0,0-.01,0-.02-.01,0,0-.01-.01-.02-.01-.03-.01-.04-.02-.04-.04-.04-.03-.07-.06-.08-.09-.04-.06-.08-.13-.1-.2-.03-.06-.04-.14-.04-.21,0-.09.01-.17.03-.26.02-.09.05-.17.09-.26.16.09.35.13.54.13.2,0,.38-.05.54-.15.1-.06.18-.14.25-.23.07-.09.12-.19.15-.3.03-.11.03-.21,0-.31-.03-.1-.1-.19-.21-.27-.1-.07-.22-.12-.33-.13-.12-.01-.23,0-.35.02-.12.03-.23.07-.34.14-.11.06-.2.13-.28.21-.1.1-.18.21-.24.32-.04.07-.08.15-.11.22,0,0,0,0,0,0-.08.05-.15.1-.23.17-.07.06-.15.13-.24.19-.12.09-.24.18-.35.28-.13.09-.25.18-.38.25-.13.06-.27.12-.41.16-.14.03-.28.04-.43,0-.16-.02-.31-.07-.44-.15-.14-.07-.27-.17-.4-.28.22-.21.45-.42.7-.62.25-.2.49-.39.73-.55.03-.03.05-.06.05-.11,0-.04-.01-.08-.04-.11-.02-.04-.05-.06-.09-.09-.04-.02-.08-.02-.12,0-.28.16-.55.34-.82.53-.26.19-.51.39-.73.62-.25-.29-.47-.61-.64-.94-.02-.04-.05-.06-.09-.07-.04,0-.08,0-.12,0-.04.02-.06.04-.09.08-.02.03-.02.07,0,.12.08.17.17.36.27.55.11.2.23.38.37.56-.05.03-.11.07-.17.12-.06.05-.11.09-.17.13-.09.06-.19.13-.28.19-.1.06-.18.12-.27.17-.19.11-.39.2-.59.28-.21.08-.43.13-.66.14h-.24c-.09,0-.17-.02-.25-.05-.09-.02-.16-.06-.21-.12-.06-.05-.09-.12-.11-.21-.02-.09,0-.19.02-.29.02-.09.05-.2.07-.29,0-.01,0-.02,0-.04,0,0,0-.02,0-.03,0-.04.02-.08.03-.13,0-.04.02-.08.03-.12,0-.02.02-.04.02-.06,0-.01.01-.04.02-.06.04-.05.07-.1.11-.17.03-.06.04-.12.04-.18s-.03-.12-.08-.16c-.06-.04-.11-.05-.17-.03-.08,0-.14.05-.2.1-.06.06-.11.11-.17.17l-.07.09-.17.17c-.06.06-.13.14-.21.22-.14.13-.27.25-.41.37-.14.13-.28.23-.43.32-.09.06-.19.11-.31.16-.12.06-.24.08-.36.08-.04,0-.09,0-.13-.02-.05,0-.09-.03-.13-.06-.03-.03-.06-.09-.08-.15-.02-.07-.03-.14-.04-.22,0-.08-.02-.15-.02-.22v-.18s-.01-.09-.04-.12c-.02-.03-.06-.05-.1-.06-.04,0-.08,0-.11.02-.04.02-.07.05-.08.1,0,.01,0,.02,0,.03-.02,0-.04-.01-.06,0-.16.06-.31.12-.46.2-.14.08-.29.15-.43.22-.13.06-.27.12-.4.17-.13.05-.27.11-.41.16-.16.05-.31.11-.46.15-.15.05-.31.09-.47.14-.16.05-.32.09-.48.14-.16.04-.32.07-.49.08-.12.01-.25,0-.38-.03-.13-.03-.26-.07-.37-.14-.11-.06-.21-.15-.28-.25-.08-.1-.12-.22-.12-.36,0-.06,0-.11-.01-.14,0-.03,0-.08.01-.15.22-.24.45-.48.7-.71.24-.24.49-.48.72-.72.24-.24.46-.5.67-.76.21-.26.39-.54.54-.84.06-.12.12-.25.16-.38.04-.13.06-.27.08-.41,0-.06,0-.14,0-.21s0-.15-.01-.22c-.01-.08-.03-.15-.05-.21-.02-.07-.06-.13-.1-.18-.06-.07-.13-.12-.2-.15-.06-.02-.13-.03-.19-.03-.01,0-.03,0-.04,0"/>
    </clipPath>
  </defs>
  <g>
    <path class="cls-3" d="M9.29,67.46h.02c.25.82.94,2.57,2.31,6.2h-4.51c1.1-3.11,1.89-5.28,2.19-6.2M8.74,66.53l-4.49,12.24h.96l1.56-4.23h5.16l1.59,4.23h1.03l-4.69-12.24h-1.12Z"/>
    <g class="cls-14">
      <rect class="cls-4" x="4.25" y="66.53" width="10.3" height="12.24"/>
    </g>
  </g>
  <g>
    <path class="cls-3" d="M27.73,66.53c-1.71,4.07-4.16,10.18-4.44,11.07h-.04c-.45-1.38-2.57-6.87-4.25-11.07h-1.41v12.24h.94v-5.21c0-2.1-.03-4.95-.12-6.35h.03c.56,1.85,3.13,8.57,4.3,11.56h.93c1.56-3.86,4.04-9.89,4.53-11.54h.05c-.05,1.23-.07,3.51-.07,5.91v5.63h.94v-12.24h-1.4Z"/>
    <g class="cls-10">
      <rect class="cls-4" x="17.59" y="66.53" width="11.54" height="12.24"/>
    </g>
  </g>
  <g>
    <path class="cls-3" d="M40.79,66.53c-1.31,2.11-3.46,5.7-3.99,6.61-.52-.91-2.66-4.53-3.88-6.61h-1.1l4.37,7.36c.03.05.07.18.07.28v4.6h.96v-4.55c0-.12.02-.19.05-.26l4.56-7.43h-1.05Z"/>
    <g class="cls-5">
      <rect class="cls-4" x="31.82" y="66.53" width="10.02" height="12.24"/>
    </g>
  </g>
  <g>
    <path class="cls-3" d="M45.37,67.4h3.22c1.91,0,2.89.86,2.89,2.36,0,1.61-1,2.41-3.15,2.41h-2.95v-4.77ZM44.41,66.53v12.24h.96v-5.72h3.01c2.34,0,2.94.84,2.94,2.85v.31c0,1.05-.05,2.03.17,2.55h.96c-.23-.47-.16-1.63-.16-2.48v-.47c0-2.08-.84-2.9-2.1-3.2,1.36-.3,2.29-1.31,2.29-2.87,0-1.92-1.28-3.22-3.69-3.22h-4.39Z"/>
    <g class="cls-15">
      <rect class="cls-4" x="44.41" y="66.53" width="8.08" height="12.24"/>
    </g>
  </g>
  <g>
    <polygon class="cls-3" points="56.34 66.53 56.34 78.77 63.99 78.77 64.13 77.89 57.29 77.89 57.29 72.75 63.53 72.75 63.53 71.88 57.29 71.88 57.29 67.4 63.85 67.4 63.85 66.53 56.34 66.53"/>
    <g class="cls-11">
      <rect class="cls-4" x="56.34" y="66.53" width="7.78" height="12.24"/>
    </g>
  </g>
  <g>
    <polygon class="cls-3" points="67.41 66.53 67.41 78.77 74.75 78.77 74.93 77.89 68.35 77.89 68.35 66.53 67.41 66.53"/>
    <g class="cls-20">
      <rect class="cls-4" x="67.41" y="66.53" width="7.52" height="12.24"/>
    </g>
  </g>
  <g>
    <polygon class="cls-3" points="77.69 66.53 77.69 78.77 85.03 78.77 85.21 77.89 78.63 77.89 78.63 66.53 77.69 66.53"/>
    <g class="cls-8">
      <rect class="cls-4" x="77.69" y="66.53" width="7.52" height="12.24"/>
    </g>
  </g>
  <g>
    <polygon class="cls-3" points="87.97 66.53 87.97 78.77 95.61 78.77 95.75 77.89 88.91 77.89 88.91 72.75 95.15 72.75 95.15 71.88 88.91 71.88 88.91 67.4 95.47 67.4 95.47 66.53 87.97 66.53"/>
    <g class="cls-9">
      <rect class="cls-4" x="87.97" y="66.53" width="7.78" height="12.24"/>
    </g>
  </g>
  <g>
    <path class="cls-3" d="M19.65,46.99c-.69-.51-1.81-1.54-2.63-3.09-.86-1.62-1.38-3.82-.76-6.66.05-.24.1-.47.18-.7.5-1.67,1.49-3.2,2.82-4.4,1.59-1.42,4.17-2.98,7.79-2.98h.27l-1.76,4.54-4.14,10.72-.9,2.33h0c-.09.25-.31.38-.53.38-.12,0-.25-.04-.35-.12M74.45,28.06s0-.09.03-.11c.67-.43,1.43-.73,2.26-.91.49-.1.99-.15,1.48-.15,2,0,3.96.79,5.47,2.26.26.23.49.49.7.76,1.54,1.88,2.19,4.1,1.95,6.63-.05.49-.13.97-.24,1.46-.42,1.94-1.49,3.76-3.01,5.1-.54.5-1.13.94-1.74,1.31-.09.07-.19.12-.28.17l-6.61-16.5ZM66.27,39.82s-.04-.09-.06-.14l-6.06-15.12-.83-2.17v-.05s5.01-12.94,5.01-12.94c.03-.08.14-.08.16,0l4.56,11.81,2.42,6.04.92,2.31,6.38,15.92s0,.11-.06.12c-.89.26-1.77.41-2.63.47-.19.01-.37.02-.56.02-4.04,0-7.68-2.51-9.25-6.26M51.46,34.92l-5.1-13.2v-.04s5.01-13.01,5.01-13.01v.04s5.04,13.01,5.04,13.01l.24.65-5.03,12.55s-.05.06-.08.06-.07-.02-.08-.06M38.5,30.08c-1.64-.77-3.18-1.44-4.69-2.01-1-.39-1.98-.72-2.94-.92-.03-.06-.04-.08-.07-.13l6.96-18.06c.13-.31.37-.35.52-.35.06,0,.17.01.26.06.1.04.19.13.26.28l4.31,11.16.6,1.56-.26.65-1.67,4.32-1.68,4.19c-.55-.27-1.09-.53-1.6-.77M64.4,6.15c-.17,0-.35.01-.5.05-.68.17-1.23.64-1.49,1.31l-4.34,11.24c-.03.08-.14.08-.17,0l-4.28-11.05c-.36-.94-1.24-1.55-2.24-1.55h-.01c-1.01,0-1.9.6-2.26,1.55l-4.01,10.35c-.03.08-.14.08-.17,0l-3.85-9.98c-.38-.97-1.21-1.67-2.2-1.87-.18-.03-.36-.05-.54-.05h-.06c-1.26,0-2.37.76-2.82,1.92l-6.69,17.33-.51,1.32c-1.35-.1-2.58-.03-3.7.17-2.23.38-4.05,1.27-5.47,2.26-.55.37-1.03.77-1.46,1.15-1.79,1.59-3.08,3.72-3.67,5.99-.04.14-.08.27-.1.41-.53,2.37-.42,4.4.05,6.09.88,3.19,3.03,5.26,4.58,6.37.29.22.61.36.95.45.22.05.45.09.68.09.27,0,.54-.04.81-.13.49-.14.92-.41,1.25-.77.23-.26.42-.57.55-.9l.05-.14,7.05-18.25s.06-.03.1-.06c.96.19,1.97.5,2.99.91,1.47.56,2.96,1.19,4.54,1.94.54.26,1.09.52,1.67.8.04.02.06.07.05.11l-2.66,6.61-2.69,6.74-3.88,9.69c-.26.63.05,1.35.68,1.6.62.24,1.33-.05,1.59-.67,0,0,.01-.01.01-.03l3.92-9.78.65-1.63s.01-.05.03-.08l7.27-18.12.95-2.45,5.38,13.91c.39,1.01,1.82,1.02,2.23.01l5.33-13.29.73,1.82,11.88,29.64c.27.61.97.91,1.59.67.64-.26.95-.97.69-1.6l-3.76-9.37c-.03-.09.06-.16.13-.1,1.11.88,2.74,1.44,3.88,1.6.74.12,1.49.17,2.21.17,1.63,0,3.19-.27,4.68-.8.29-.1.6-.22.9-.34h0s.01-.01.01-.01l.74-.32v-.02c.19-.1.4-.21.59-.32.88-.5,1.72-1.1,2.5-1.79.36-.33.7-.68,1.02-1.04,1.35-1.54,2.31-3.41,2.74-5.37.17-.78.28-1.54.32-2.24.22-3.68-1.18-6.31-2.53-7.95-2.5-3.05-6.36-4.47-10.06-3.7-.79.17-1.55.42-2.24.77-.17.08-.35.18-.51.27l-2.15-5.36-4.93-12.8c-.32-.82-1.09-1.35-1.96-1.36h-.04Z"/>
    <g class="cls-16">
      <rect class="cls-4" x="13.33" y="6.15" width="75.72" height="51.95"/>
    </g>
  </g>
  <g>
    <path class="cls-3" d="M13.65,93.41c-.18,0-.34-.06-.47-.17-.07-.06-.09-.12-.06-.19.03-.08.07-.15.13-.22.08-.11.18-.2.29-.29.11-.08.22-.15.34-.22.31-.18.63-.33.95-.46.32-.13.65-.25.98-.39,0,.01.02.02.02.02,0,0,0,.01.02.02.1.13.16.27.18.42.02.15,0,.3-.07.45-.07.16-.18.3-.31.41-.14.11-.28.2-.44.28-.16.08-.34.14-.52.19-.18.05-.36.09-.54.11-.11.02-.23.03-.36.03-.04,0-.09,0-.13,0M15.07,86.67c-.19.02-.39.06-.58.12-.19.06-.37.12-.55.2-.17.07-.33.17-.49.27-.16.11-.31.23-.43.37-.13.14-.22.29-.3.46-.07.17-.1.35-.09.55,0,.19.06.37.15.52.09.16.2.3.32.42s.27.24.43.34c.15.1.31.2.46.3l1.1.69c.06.04.13.08.19.12.06.04.12.08.18.13-.26.1-.52.2-.78.3-.25.1-.51.22-.75.35-.11.06-.24.13-.37.2-.13.08-.26.17-.37.26-.12.1-.22.2-.31.32-.09.12-.15.24-.19.38-.05.19-.03.34.06.46.08.12.2.21.34.28.15.07.3.11.47.13.17.02.32.03.45.02.19,0,.37-.04.55-.08.18-.04.36-.09.54-.15.18-.07.35-.14.52-.23.17-.09.32-.2.46-.34.13-.13.23-.28.31-.45.08-.17.12-.34.13-.53,0-.14-.02-.28-.06-.41-.04-.13-.11-.25-.19-.37h0c.2-.08.39-.18.58-.27.19-.09.37-.2.55-.32.15-.1.29-.21.43-.33.14-.12.25-.26.32-.43.01-.04.01-.08,0-.11-.02-.03-.05-.05-.08-.07-.03-.01-.07-.02-.1,0-.04,0-.06.03-.08.07-.03.07-.08.13-.13.19-.06.06-.12.11-.19.16-.07.05-.14.09-.22.14-.08.04-.15.08-.21.12-.17.1-.35.19-.53.27-.18.08-.36.16-.54.23-.01,0-.02,0-.04.01-.01,0-.03,0-.04.02-.1-.09-.2-.18-.31-.26-.11-.08-.22-.15-.34-.22l-1.1-.69c-.13-.08-.28-.17-.43-.27-.15-.1-.29-.21-.4-.33-.12-.12-.2-.25-.25-.4-.06-.15-.05-.32.02-.51.07-.19.18-.35.33-.48.15-.13.32-.24.49-.33.2-.1.4-.18.61-.25.21-.07.43-.11.66-.12.19,0,.39.01.58.06.19.05.36.14.5.28.13.12.23.27.31.44.08.17.1.35.06.53-.01.05,0,.08.02.11.03.03.06.05.09.06.03.01.06,0,.1,0,.03-.01.06-.05.07-.09.06-.17.07-.33.05-.49-.02-.16-.07-.32-.15-.46-.08-.15-.17-.28-.29-.4-.12-.12-.26-.21-.4-.28-.18-.09-.36-.15-.56-.17-.11-.01-.21-.02-.32-.02-.09,0-.17,0-.26.01"/>
    <g class="cls-13">
      <rect class="cls-4" x="12.63" y="86.65" width="5.55" height="7.2"/>
    </g>
  </g>
  <g>
    <path class="cls-3" d="M18.71,89.92c-.09-.01-.19-.03-.28-.06.04-.08.07-.15.1-.2.03-.05.07-.11.13-.17.07-.07.16-.13.25-.18.1-.05.2-.07.31-.06.12.01.2.05.23.13.03.08.02.17-.04.27-.05.08-.11.15-.19.19-.08.05-.16.07-.25.09-.05,0-.1.01-.15.01-.04,0-.09,0-.13,0M18.91,88.87c-.12.03-.23.07-.34.14-.11.06-.2.13-.28.21-.1.1-.18.21-.24.32-.07.11-.13.23-.18.36-.05.13-.09.26-.13.39-.04.13-.05.26-.05.4,0,.18.04.34.11.49.07.14.17.27.29.37.12.1.26.18.42.23.16.05.32.07.49.05.16,0,.32-.04.47-.09.15-.05.31-.1.46-.17.15-.07.29-.14.43-.23.14-.08.28-.17.41-.26.15-.09.3-.19.44-.3.14-.11.29-.21.43-.32.09-.07.19-.15.29-.23.1-.08.18-.18.24-.29.02-.05.02-.1-.02-.15-.03-.05-.08-.06-.13-.04-.08.03-.15.06-.22.11-.07.05-.13.09-.2.14l-.58.4c-.22.15-.44.28-.67.42-.23.13-.47.24-.72.33-.06.02-.11.04-.17.06-.06.02-.12.03-.18.05l-.16.03s-.06.01-.06.01h-.06s-.06,0-.09,0h-.08s-.02,0-.03,0c-.01,0-.02,0-.03,0s-.02,0-.02,0c0,0-.01,0-.02,0-.02,0-.05,0-.07-.02-.02,0-.04-.01-.07-.02,0,0,0,0,0,0,0,0-.01,0-.01,0-.02,0-.04-.02-.07-.04,0,0,0,0-.02-.01,0,0-.01-.01-.02-.01-.02-.01-.04-.02-.04-.04-.05-.03-.07-.06-.08-.09-.04-.06-.08-.13-.11-.19-.02-.06-.04-.14-.04-.22s.01-.17.03-.26c.02-.09.05-.17.09-.26.16.09.35.13.54.13.2,0,.38-.05.54-.15.09-.06.18-.14.25-.23s.12-.19.15-.3c.03-.1.03-.21,0-.31-.03-.1-.1-.19-.21-.27-.1-.07-.22-.12-.33-.13-.04,0-.07,0-.11,0-.08,0-.16,0-.24.03"/>
    <g class="cls-21">
      <rect class="cls-4" x="17.68" y="88.84" width="4.51" height="3"/>
    </g>
  </g>
  <g>
    <path class="cls-3" d="M24.49,89.2c-.07.01-.14.04-.2.07-.08.04-.16.08-.23.13-.08.04-.15.09-.22.14-.14.08-.28.17-.42.27-.14.09-.27.19-.4.29-.14.1-.28.21-.43.33-.14.11-.27.24-.39.37,0-.04,0-.08.01-.12,0-.04,0-.06,0-.07.03-.19.05-.39.05-.59,0-.03-.01-.06-.04-.09-.02-.03-.05-.04-.08-.04-.03,0-.06,0-.09.02-.03.01-.05.04-.06.07-.03.09-.05.18-.08.27-.03.09-.05.17-.08.27-.02.08-.05.16-.07.25-.03.09-.03.17,0,.25.02.07.05.12.1.17.05.05.11.08.17.1.09.02.17.01.24-.03.07-.04.13-.09.19-.14.27-.25.55-.48.84-.7.29-.22.59-.42.91-.6l.21-.11s-.02.07-.03.11c0,.04-.02.08-.03.11-.02.05-.04.11-.05.17-.02.06-.03.11-.04.17-.04.16-.06.32-.07.48,0,.16.03.32.12.47.09.16.22.28.39.35.17.07.34.1.52.09.19-.01.38-.04.57-.08.19-.04.38-.09.55-.14.4-.14.79-.31,1.16-.52.37-.21.72-.44,1.07-.68.06-.04.1-.1.11-.17,0-.07,0-.13-.03-.19-.03-.05-.08-.09-.14-.12-.06-.02-.12-.01-.2.03-.29.19-.59.37-.88.55-.29.18-.6.33-.93.46-.16.07-.32.13-.49.17-.16.04-.33.08-.5.11-.06.01-.13.02-.2.03-.08.01-.15.02-.22.02-.07,0-.14-.02-.2-.04-.06-.02-.12-.07-.16-.13-.04-.06-.06-.12-.07-.19,0-.07,0-.14.01-.21.01-.07.03-.15.05-.22.02-.07.04-.14.05-.2.02-.08.03-.15.06-.24.02-.08.04-.17.04-.25,0-.08,0-.16-.03-.23-.03-.07-.09-.13-.17-.17-.06-.03-.11-.05-.16-.05-.02,0-.03,0-.05,0"/>
    <g class="cls-1">
      <rect class="cls-4" x="21.76" y="89.2" width="6.97" height="2.46"/>
    </g>
  </g>
  <g>
    <path class="cls-3" d="M30.46,84.97c-.05,0-.1.04-.13.09-.47.78-.88,1.6-1.23,2.46-.25.02-.51.04-.77.07s-.51.06-.77.1c-.05,0-.08.03-.09.06s-.02.07-.02.11c0,.04.02.07.05.1.03.03.06.04.11.04.22-.02.45-.04.67-.05.22-.01.45-.02.67-.03-.1.28-.2.57-.29.86-.09.29-.17.58-.24.88-.04.16-.08.34-.12.53-.04.19-.07.38-.08.57-.01.19,0,.38.05.55.05.17.14.33.28.46.15.13.32.22.5.25.18.03.37.03.57,0,.19-.03.39-.09.57-.16.19-.08.36-.15.51-.22.19-.08.37-.18.55-.29.18-.11.35-.23.52-.37.16-.14.32-.28.46-.44.14-.16.26-.33.36-.51.03-.05.03-.09.02-.13-.01-.04-.04-.08-.07-.11-.03-.02-.07-.04-.12-.04s-.09.02-.13.05c-.25.22-.5.44-.74.65-.25.21-.52.39-.83.55-.14.07-.29.13-.43.19-.14.05-.3.1-.46.14-.06.02-.12.03-.19.05-.07.02-.14.03-.21.04-.07,0-.14,0-.21,0-.07,0-.13-.03-.19-.06-.05-.03-.1-.07-.13-.12-.03-.05-.05-.1-.06-.16-.01-.06-.02-.12-.02-.18s0-.12,0-.18c.01-.17.03-.35.07-.51s.08-.34.12-.5c.07-.3.15-.61.23-.91.08-.3.17-.6.27-.9h.24c.08,0,.16,0,.24,0,.14,0,.28,0,.42.02.14.01.27,0,.4-.02.05,0,.09-.03.12-.07.03-.04.04-.08.04-.13s-.01-.09-.04-.13c-.03-.04-.07-.07-.12-.08-.13-.03-.27-.04-.41-.03-.14,0-.28.01-.41.02-.06,0-.11,0-.17.01s-.11,0-.17,0c.29-.77.62-1.51,1.01-2.21.03-.06.04-.12.02-.16-.02-.05-.05-.09-.1-.11-.03-.02-.07-.03-.11-.03-.01,0-.02,0-.04,0"/>
    <g class="cls-12">
      <rect class="cls-4" x="27.45" y="84.96" width="5.18" height="7.07"/>
    </g>
  </g>
  <g>
    <path class="cls-3" d="M33.12,89.92c-.09-.01-.19-.03-.28-.06.04-.08.07-.15.1-.2.02-.05.07-.11.13-.17.07-.07.15-.13.26-.18.1-.05.2-.07.31-.06.12.01.2.05.23.13.03.08.02.17-.04.27-.05.08-.11.15-.19.19-.07.05-.16.07-.25.09-.05,0-.09.01-.14.01-.04,0-.09,0-.13,0M33.32,88.87c-.12.03-.23.07-.34.14-.11.06-.2.13-.28.21-.09.1-.18.21-.24.32-.07.11-.13.23-.18.36-.05.13-.09.26-.13.39-.04.13-.05.26-.05.4,0,.18.04.34.11.49.08.14.17.27.29.37.12.1.26.18.41.23.16.05.32.07.49.05.16,0,.32-.04.47-.09.15-.05.31-.1.46-.17.15-.07.29-.14.43-.23.14-.08.28-.17.41-.26.15-.09.3-.19.44-.3.14-.11.29-.21.43-.32.09-.07.19-.15.3-.23.1-.08.18-.18.23-.29.03-.05.02-.1-.02-.15-.03-.05-.08-.06-.13-.04-.08.03-.15.06-.22.11-.06.05-.13.09-.19.14l-.58.4c-.22.15-.44.28-.67.42-.23.13-.47.24-.72.33-.06.02-.11.04-.17.06-.06.02-.12.03-.18.05l-.16.03s-.06.01-.06.01h-.06s-.06,0-.09,0h-.08s-.02,0-.03,0c-.01,0-.02,0-.03,0,0,0-.02,0-.02,0,0,0-.01,0-.02,0-.03,0-.05,0-.07-.02-.02,0-.04-.01-.07-.02,0,0,0,0,0,0,0,0,0,0-.02,0-.01,0-.04-.02-.07-.04,0,0-.01,0-.02-.01,0,0-.01-.01-.02-.01-.03-.01-.04-.02-.04-.04-.05-.03-.07-.06-.08-.09-.05-.06-.08-.13-.11-.19-.03-.06-.04-.14-.04-.22s.01-.17.03-.26c.02-.09.05-.17.09-.26.16.09.35.13.54.13.2,0,.38-.05.54-.15.09-.06.18-.14.25-.23s.12-.19.15-.3c.03-.1.03-.21,0-.31-.03-.1-.1-.19-.21-.27-.1-.07-.22-.12-.33-.13-.04,0-.07,0-.11,0-.08,0-.16,0-.24.03"/>
    <g class="cls-6">
      <rect class="cls-4" x="32.09" y="88.84" width="4.51" height="3"/>
    </g>
  </g>
  <g>
    <path class="cls-3" d="M39.51,88.95c-.07.02-.14.05-.2.11-.06.06-.11.12-.16.18h0s-.08.08-.08.08c-.05.06-.11.11-.17.18-.06.06-.14.14-.22.22-.13.13-.27.25-.41.37-.14.12-.29.23-.44.32-.08.06-.19.11-.31.16-.12.05-.24.08-.35.08-.04,0-.09,0-.14-.02-.05-.02-.09-.04-.12-.06-.04-.03-.06-.09-.08-.15-.02-.07-.03-.14-.04-.22-.01-.08-.02-.15-.02-.22v-.18c0-.05-.01-.09-.04-.12-.03-.03-.06-.05-.1-.06-.04,0-.07,0-.11.02-.04.02-.06.05-.08.09-.02.09-.03.17-.04.23,0,.06-.01.13-.02.21v.04c0,.11,0,.22.02.34.02.12.06.22.13.31.09.1.18.17.3.22.11.04.23.07.35.07.09,0,.19-.01.29-.03.1-.02.2-.05.28-.09.19-.08.39-.2.58-.34.19-.14.37-.29.53-.43l.14-.1c-.02.08-.03.16-.04.25,0,.09,0,.17.01.26.02.12.06.22.12.31.06.08.14.16.23.21.09.05.19.1.3.13.11.03.22.05.32.06.26.02.53,0,.78-.07.26-.07.51-.16.75-.29.13-.06.25-.13.36-.2.11-.07.22-.13.33-.2l.1-.07c.1-.07.19-.14.29-.23.1-.08.18-.16.25-.25.03-.04.04-.09.04-.13,0-.04-.01-.08-.04-.11-.02-.03-.05-.05-.1-.06-.04-.01-.09,0-.14.01-.06.03-.13.07-.2.1-.07.04-.14.09-.2.14-.06.05-.11.09-.17.13-.1.06-.19.13-.28.19-.09.06-.18.12-.26.16-.19.11-.39.2-.6.28-.21.08-.43.12-.65.14-.07,0-.15,0-.24,0-.09,0-.18-.02-.26-.05-.08-.02-.15-.06-.21-.12-.06-.05-.09-.12-.1-.21-.02-.09-.01-.19.01-.29.02-.1.05-.2.07-.3,0-.01,0-.02,0-.03,0-.01,0-.02,0-.03,0-.04.02-.08.03-.12.01-.04.02-.08.03-.12,0-.02.01-.04.02-.06,0-.02.01-.04.02-.06.04-.05.08-.1.11-.16.03-.06.05-.12.04-.18,0-.06-.03-.12-.08-.16-.04-.03-.08-.04-.12-.04-.02,0-.03,0-.05,0"/>
    <g class="cls-18">
      <rect class="cls-4" x="36.39" y="88.94" width="6.48" height="2.41"/>
    </g>
  </g>
  <g>
    <path class="cls-3" d="M42.59,89.61c-.1,0-.18-.04-.25-.1-.03-.03-.05-.06-.06-.1,0-.04,0-.08.01-.12.01-.04.03-.08.05-.11.02-.04.04-.07.06-.1.13-.19.29-.33.49-.45.03-.01.07-.03.11-.06.04-.02.08-.04.12-.04.04,0,.08,0,.11,0,.03.01.05.04.06.09.01.1,0,.2-.05.32-.04.11-.08.21-.12.3-.07.13-.16.26-.27.39-.09,0-.17-.02-.27-.02M42.9,88.12c-.22.09-.43.21-.64.39-.2.18-.34.38-.43.62-.05.13-.06.25-.04.38.02.12.08.24.17.34.09.1.2.16.33.19.12.03.25.06.38.08.19.02.38.05.57.07.19.03.37.08.55.14,0,0,.02,0,.03,0,.02,0,.02.01.03.01l.04.02.06.03s.03.02.04.02l.03.04.03.05s.02.05.02.05c0,0,0,.01,0,.03s0,.03,0,.03c0,.01,0,.02,0,.03,0,.01,0,.02,0,.03,0,.03,0,.05,0,.08,0,.03,0,.05,0,.08.02.09.04.18.07.27.03.09.07.17.12.25.05.08.11.15.17.21.07.06.14.11.23.14.13.06.27.07.4.06.13-.02.27-.05.39-.11.13-.06.25-.12.37-.2.12-.08.23-.15.33-.23.12-.08.23-.16.34-.24.11-.08.22-.17.33-.26.04-.04.1-.09.15-.15.06-.06.11-.12.16-.19.05-.07.1-.13.14-.21.04-.07.07-.13.09-.19,0-.03,0-.07,0-.1-.02-.03-.04-.06-.06-.09-.03-.02-.06-.04-.09-.04-.04,0-.07,0-.11.03-.08.06-.15.12-.23.19-.08.07-.17.15-.25.23-.08.08-.17.16-.25.23-.08.07-.16.13-.24.19-.08.06-.15.11-.23.17-.08.06-.15.11-.23.16-.08.05-.16.11-.24.16-.08.05-.17.09-.27.12-.08.02-.16.03-.23.03-.07,0-.14-.05-.19-.11-.04-.05-.07-.11-.1-.16-.03-.06-.05-.12-.06-.19v-.08s-.01-.04-.01-.04c0-.03,0-.07-.01-.1,0-.03,0-.07-.02-.11-.04-.17-.13-.31-.26-.41-.14-.1-.28-.17-.44-.22-.09-.03-.19-.05-.28-.08-.09-.02-.19-.04-.29-.05.1-.12.18-.26.25-.4.06-.14.12-.28.15-.42.02-.11.03-.22.03-.34,0-.12-.05-.22-.13-.3-.09-.1-.2-.15-.32-.16-.02,0-.05,0-.07,0-.1,0-.2.02-.29.05"/>
    <g class="cls-7">
      <rect class="cls-4" x="41.78" y="88.07" width="5.64" height="3.7"/>
    </g>
  </g>
  <g>
    <path class="cls-3" d="M47.98,89.3h.02s0,0,0,0c0,0,0,0,0,0,0,0-.01,0-.02,0M48.09,92s-.04-.01-.04-.02c0,0,0-.03,0-.05,0-.04.01-.09.04-.12.02-.04.06-.07.1-.1.04-.03.08-.06.12-.09.04-.03.08-.05.11-.07.04-.03.07-.05.09-.06,0,.09-.03.17-.06.25-.04.08-.09.15-.16.2-.03.02-.05.04-.09.05-.02.01-.05.02-.07.02,0,0-.02,0-.03,0M47.83,88.2c-.09.02-.19.06-.28.12-.09.06-.17.13-.25.21-.08.08-.14.15-.18.21-.05.08-.11.16-.15.25-.05.09-.08.19-.11.29-.03.1-.04.2-.03.3,0,.1.03.2.07.29.05.08.1.15.17.21.07.05.15.1.23.14.08.04.17.08.25.11.08.03.16.07.24.12.13.07.25.15.36.25.12.1.21.21.27.34,0,0,0,0,0,0-.08.05-.17.1-.26.16-.09.05-.18.12-.25.19-.08.07-.14.15-.2.24-.06.09-.09.18-.09.29-.01.09,0,.19.05.27.04.09.1.16.19.21.09.06.19.08.3.07.1-.01.2-.04.29-.08.16-.08.28-.19.37-.34.09-.15.14-.31.17-.47.02-.14.01-.26,0-.37.11-.06.22-.11.33-.16.11-.05.22-.1.34-.15.16-.06.32-.12.49-.17.17-.05.34-.12.5-.18.17-.07.33-.14.48-.23.15-.08.29-.19.41-.32.03-.02.04-.06.04-.09s0-.07-.02-.1c-.02-.03-.04-.05-.07-.07-.03-.02-.06-.02-.1,0-.17.06-.34.13-.49.22-.15.09-.31.17-.48.24-.13.06-.25.1-.38.14-.13.04-.26.08-.39.13-.14.06-.28.11-.41.17-.13.06-.26.12-.39.19-.12-.21-.27-.39-.47-.54-.2-.15-.42-.27-.64-.37-.03-.01-.07-.03-.12-.05-.04-.02-.09-.04-.13-.06-.04-.02-.08-.05-.11-.08-.03-.03-.06-.07-.07-.11-.03-.09-.02-.19.03-.31.05-.12.1-.21.15-.29.02-.05.05-.09.09-.12.03-.04.07-.07.1-.11.02-.02.04-.04.06-.06.02-.02.04-.03.06-.05l.05-.04s.02,0,.05-.03c0,0,0,0,0,.01,0,0,0,0,0,.02,0,.06,0,.12-.02.16-.01.07-.03.13-.05.19-.02.06-.05.12-.07.18-.02.04-.02.08-.01.11.01.04.03.06.06.08.03.02.06.02.1.02.04,0,.07-.03.09-.07l.02-.03c.04-.06.08-.14.13-.24.04-.09.08-.18.1-.28.02-.09.03-.19.01-.28-.01-.09-.05-.16-.12-.22-.06-.06-.14-.09-.21-.09-.02,0-.03,0-.05,0"/>
    <g class="cls-2">
      <rect class="cls-4" x="46.81" y="88.19" width="4.72" height="4.29"/>
    </g>
  </g>
  <g>
    <path class="cls-3" d="M54.78,91.12c-.12-.02-.2-.07-.22-.15-.02-.08-.02-.18.01-.29.03-.11.08-.21.14-.31.06-.1.11-.18.15-.23.14-.18.31-.32.51-.43.2-.12.41-.19.64-.22.12-.02.25-.02.39,0,.13.01.25.07.34.17.04.04.08.08.11.12.03.04.06.08.1.12.02.02.03.04.06.06.02.02.04.04.06.06l-.25.18c-.11.07-.22.14-.33.2-.11.06-.22.13-.33.2-.11.06-.22.12-.34.18-.12.06-.23.11-.35.16-.1.05-.21.09-.34.13-.09.03-.18.05-.27.05-.03,0-.06,0-.09,0M61.78,89.92c-.09-.01-.19-.03-.28-.06.04-.08.07-.15.1-.2.03-.05.07-.11.13-.17.07-.07.15-.13.25-.18.1-.05.2-.07.31-.06.12.01.2.05.23.13.03.08.02.17-.04.27-.05.08-.11.15-.19.19-.08.05-.16.07-.25.09-.05,0-.1.01-.14.01-.04,0-.09,0-.13,0M57.89,89.07c.04-.14.09-.27.13-.4.08-.23.17-.46.27-.69.1-.23.21-.45.34-.67.13-.21.28-.42.44-.61.16-.19.35-.36.55-.5.09-.06.18-.12.28-.19.11-.06.21-.11.32-.13.02,0,.03,0,.05,0,0,0,0,0,0,.01,0,0,0,0,0,.01,0,.08-.02.16-.04.25-.08.24-.17.47-.29.69-.12.22-.25.43-.38.63-.25.37-.54.72-.84,1.04-.31.32-.62.64-.94.97.03-.14.07-.28.11-.41M60.24,85.36c-.07,0-.15.02-.22.05-.08.03-.15.05-.21.08-.26.12-.5.27-.72.46-.21.19-.41.4-.58.63-.17.23-.33.47-.47.73-.14.26-.26.52-.36.77-.1.24-.19.49-.27.75-.08.26-.14.51-.19.78-.02-.01-.03-.03-.04-.05-.01-.02-.03-.04-.04-.05-.09-.13-.19-.23-.3-.3-.11-.07-.25-.12-.41-.14-.3-.04-.61-.01-.91.09-.3.11-.56.26-.78.47-.11.1-.2.21-.28.32-.08.12-.15.24-.2.37-.06.13-.11.28-.14.43-.04.15-.02.3.05.44.09.16.2.26.33.31.14.05.28.07.43.05.15-.01.31-.05.46-.11s.3-.11.42-.17c.17-.07.33-.15.49-.23.16-.09.32-.18.47-.27l.38-.23c.02.18.07.35.14.51.08.16.19.29.35.4.14.1.29.16.46.19.16.03.33.03.5,0,.17-.03.33-.07.49-.13.16-.06.31-.13.45-.21.14-.08.28-.17.42-.26.13-.09.27-.18.42-.26.14-.09.27-.18.4-.27,0,.06-.02.12-.02.18,0,.18.04.34.11.49.08.14.17.27.29.37.12.1.26.18.42.23.16.05.32.07.49.05.16,0,.32-.04.47-.09.15-.05.31-.1.46-.17.15-.07.29-.14.43-.23.14-.08.28-.17.41-.26.15-.09.3-.19.44-.3.14-.11.29-.21.43-.32.09-.07.19-.15.29-.23.1-.08.18-.18.24-.29.02-.05.02-.1-.02-.15-.03-.05-.08-.06-.14-.04-.08.03-.15.06-.22.11-.06.05-.13.09-.19.14l-.58.4c-.22.15-.44.28-.67.42-.23.13-.47.24-.72.33-.06.02-.11.04-.17.06-.06.02-.12.03-.18.05l-.16.03s-.06.01-.06.01h-.06s-.06,0-.09,0h-.08s-.02,0-.03,0c-.01,0-.02,0-.03,0s-.02,0-.02,0c0,0-.01,0-.02,0-.03,0-.05,0-.07-.02-.02,0-.04-.01-.07-.02,0,0,0,0,0,0,0,0-.01,0-.02,0-.01,0-.04-.02-.07-.04,0,0-.01,0-.02-.01,0,0-.01-.01-.02-.01-.02-.01-.04-.02-.04-.04-.05-.03-.07-.06-.08-.09-.05-.06-.08-.13-.11-.19-.02-.06-.04-.14-.04-.22s.01-.17.03-.26c.02-.09.05-.17.09-.26.16.09.35.13.54.13.2,0,.38-.05.54-.15.09-.06.18-.14.25-.23.07-.09.12-.19.15-.3.03-.1.03-.21,0-.31-.03-.1-.09-.19-.2-.27-.11-.07-.22-.12-.33-.13-.12-.01-.23,0-.35.02-.12.03-.23.07-.34.14-.11.06-.2.13-.28.21-.09.1-.18.21-.24.32-.04.07-.07.14-.11.21-.06,0-.12.03-.17.07-.2.15-.4.29-.61.42-.21.13-.42.26-.63.38-.1.07-.2.13-.31.2-.11.06-.22.12-.34.17-.12.05-.23.09-.35.11-.12.03-.24.03-.37.02-.11-.02-.21-.05-.28-.11-.07-.06-.13-.13-.17-.21-.04-.08-.07-.17-.09-.27-.02-.1-.02-.19-.02-.3,0-.03,0-.06,0-.09,0-.03,0-.06.01-.08v-.02c.43-.32.83-.68,1.21-1.06.38-.38.72-.79,1.03-1.22.17-.23.33-.48.47-.74.15-.26.26-.53.35-.81.03-.11.05-.24.04-.37,0-.13-.06-.25-.15-.34-.06-.06-.12-.1-.19-.12-.05-.02-.11-.03-.16-.03-.02,0-.04,0-.05,0"/>
    <g class="cls-19">
      <rect class="cls-4" x="54.07" y="85.36" width="11.19" height="6.48"/>
    </g>
  </g>
  <g>
    <path class="cls-3" d="M83.89,89.44c-.09-.01-.19-.03-.28-.06.04-.08.07-.15.1-.2.02-.05.07-.11.13-.17.07-.07.15-.13.25-.18.1-.05.2-.07.31-.06.12.01.2.06.23.13.03.08.02.17-.04.27-.05.08-.11.15-.19.19-.07.04-.16.07-.25.09-.05,0-.1.01-.15.01-.04,0-.09,0-.13,0M69.02,89.26c.04-.16.08-.32.12-.48.04-.16.09-.31.14-.47.11-.3.23-.59.36-.87.14-.28.29-.56.45-.84.07-.12.14-.22.21-.33.07-.11.15-.21.24-.31.04-.04.08-.08.12-.13.05-.05.1-.09.15-.13.06-.04.11-.07.17-.1.06-.03.12-.04.17-.04.04,0,.08.03.1.08.02.05.04.11.04.18,0,.07.01.13.01.2v.15c0,.11-.03.23-.07.34-.04.12-.09.23-.14.33-.09.19-.2.36-.31.52-.11.16-.24.32-.38.48-.05.06-.12.14-.21.23-.09.09-.19.2-.29.3-.1.11-.21.21-.32.32-.11.11-.21.21-.3.29-.09.09-.16.16-.21.21-.05.05-.08.07-.08.07M71.13,85.11c-.08,0-.16.02-.25.05-.08.03-.15.06-.22.1-.14.07-.27.17-.37.28-.11.11-.21.23-.31.35-.21.27-.4.55-.57.85-.17.3-.32.61-.46.92-.14.35-.27.69-.39,1.04-.11.35-.2.71-.25,1.08-.03.19-.04.38-.03.57.01.19.07.37.17.54.09.13.2.25.33.35.13.1.28.17.44.21.2.06.41.08.62.06.21-.02.42-.05.62-.1.2-.05.4-.1.6-.16.2-.06.39-.12.59-.18.18-.06.36-.12.54-.19.18-.07.36-.14.54-.21.19-.08.38-.17.56-.26.12-.06.22-.15.33-.24v.02c0,.1,0,.21.02.33.01.12.06.22.13.31.09.1.18.18.29.21.11.05.23.07.36.07.09,0,.2,0,.3-.03.1-.02.19-.05.28-.09.2-.09.39-.2.58-.34.19-.14.37-.29.53-.43l.13-.1c-.02.08-.03.17-.04.24,0,.09,0,.17,0,.25.02.13.06.23.13.31.06.09.13.16.23.21.09.06.19.1.3.13.1.03.21.06.32.06.27.02.53,0,.79-.07.25-.06.5-.16.74-.29h0c.13-.06.25-.13.36-.2.11-.07.22-.13.32-.21l.1-.07c.09-.06.31-.2.4-.28.15.14.31.26.49.36.18.09.36.17.56.2.09.01.18.02.28.02.21,0,.4-.03.58-.1.19-.06.37-.16.55-.27.16-.11.33-.24.5-.37,0,.05-.02.09-.02.14,0,.18.04.34.11.49.08.14.17.27.29.37.12.1.26.18.41.23.16.05.32.07.49.05.16,0,.32-.04.47-.09.15-.05.31-.1.46-.17.15-.07.29-.14.43-.23.14-.08.28-.17.41-.26.15-.09.3-.19.44-.3.14-.11.29-.21.43-.32.09-.07.19-.15.29-.23.1-.08.18-.18.23-.29.03-.05.02-.1-.01-.15-.03-.05-.08-.06-.13-.04-.08.02-.15.06-.22.1-.06.05-.13.09-.19.14l-.58.4c-.22.15-.44.28-.67.42-.23.13-.47.24-.72.33-.05.02-.11.04-.17.05-.06.02-.12.03-.18.05l-.16.03s-.06.02-.06.02h-.06s-.06,0-.09,0h-.08s-.02,0-.03,0c-.01,0-.02,0-.03,0-.01,0-.02,0-.02,0,0,0-.01,0-.02,0-.03,0-.05,0-.07-.01-.02,0-.04-.01-.07-.02,0,0,0,0,0,0,0,0,0,0-.02,0-.01,0-.04-.02-.07-.04,0,0-.01,0-.02-.01,0,0-.01-.01-.02-.01-.03-.01-.04-.02-.04-.04-.04-.03-.07-.06-.08-.09-.04-.06-.08-.13-.1-.2-.03-.06-.04-.14-.04-.21,0-.09.01-.17.03-.26.02-.09.05-.17.09-.26.16.09.35.13.54.13.2,0,.38-.05.54-.15.1-.06.18-.14.25-.23.07-.09.12-.19.15-.3.03-.11.03-.21,0-.31-.03-.1-.1-.19-.21-.27-.1-.07-.22-.12-.33-.13-.12-.01-.23,0-.35.02-.12.03-.23.07-.34.14-.11.06-.2.13-.28.21-.1.1-.18.21-.24.32-.04.07-.08.15-.11.22,0,0,0,0,0,0-.08.05-.15.1-.23.17-.07.06-.15.13-.24.19-.12.09-.24.18-.35.28-.13.09-.25.18-.38.25-.13.06-.27.12-.41.16-.14.03-.28.04-.43,0-.16-.02-.31-.07-.44-.15-.14-.07-.27-.17-.4-.28.22-.21.45-.42.7-.62.25-.2.49-.39.73-.55.03-.03.05-.06.05-.11,0-.04-.01-.08-.04-.11-.02-.04-.05-.06-.09-.09-.04-.02-.08-.02-.12,0-.28.16-.55.34-.82.53-.26.19-.51.39-.73.62-.25-.29-.47-.61-.64-.94-.02-.04-.05-.06-.09-.07-.04,0-.08,0-.12,0-.04.02-.06.04-.09.08-.02.03-.02.07,0,.12.08.17.17.36.27.55.11.2.23.38.37.56-.05.03-.11.07-.17.12-.06.05-.11.09-.17.13-.09.06-.19.13-.28.19-.1.06-.18.12-.27.17-.19.11-.39.2-.59.28-.21.08-.43.13-.66.14h-.24c-.09,0-.17-.02-.25-.05-.09-.02-.16-.06-.21-.12-.06-.05-.09-.12-.11-.21-.02-.09,0-.19.02-.29.02-.09.05-.2.07-.29,0-.01,0-.02,0-.04,0,0,0-.02,0-.03,0-.04.02-.08.03-.13,0-.04.02-.08.03-.12,0-.02.02-.04.02-.06,0-.01.01-.04.02-.06.04-.05.07-.1.11-.17.03-.06.04-.12.04-.18s-.03-.12-.08-.16c-.06-.04-.11-.05-.17-.03-.08,0-.14.05-.2.1-.06.06-.11.11-.17.17l-.07.09-.17.17c-.06.06-.13.14-.21.22-.14.13-.27.25-.41.37-.14.13-.28.23-.43.32-.09.06-.19.11-.31.16-.12.06-.24.08-.36.08-.04,0-.09,0-.13-.02-.05,0-.09-.03-.13-.06-.03-.03-.06-.09-.08-.15-.02-.07-.03-.14-.04-.22,0-.08-.02-.15-.02-.22v-.18s-.01-.09-.04-.12c-.02-.03-.06-.05-.1-.06-.04,0-.08,0-.11.02-.04.02-.07.05-.08.1,0,.01,0,.02,0,.03-.02,0-.04-.01-.06,0-.16.06-.31.12-.46.2-.14.08-.29.15-.43.22-.13.06-.27.12-.4.17-.13.05-.27.11-.41.16-.16.05-.31.11-.46.15-.15.05-.31.09-.47.14-.16.05-.32.09-.48.14-.16.04-.32.07-.49.08-.12.01-.25,0-.38-.03-.13-.03-.26-.07-.37-.14-.11-.06-.21-.15-.28-.25-.08-.1-.12-.22-.12-.36,0-.06,0-.11-.01-.14,0-.03,0-.08.01-.15.22-.24.45-.48.7-.71.24-.24.49-.48.72-.72.24-.24.46-.5.67-.76.21-.26.39-.54.54-.84.06-.12.12-.25.16-.38.04-.13.06-.27.08-.41,0-.06,0-.14,0-.21s0-.15-.01-.22c-.01-.08-.03-.15-.05-.21-.02-.07-.06-.13-.1-.18-.06-.07-.13-.12-.2-.15-.06-.02-.13-.03-.19-.03-.01,0-.03,0-.04,0"/>
    <g class="cls-17">
      <rect class="cls-4" x="68.28" y="85.11" width="19.09" height="6.42"/>
    </g>
  </g>
</svg>